# xmcd CD database file
#
# Track frame offsets:
#	150
#	12759
#	27063
#	39195
#	53368
#	66324
#	77672
#	88966
#	99599
#	113850
#	127319
#	135993
#	146185
#	158961
#	173202
#	183985
#	193932
#	208536
#	221588
#
# Disc length: 3129 seconds
#
# Revision: 2
# Processed by: cddbd v1.5.2PL0 Copyright (c) Steve Scherf et al.
# Submitted via: CDex 1.51
#
DISCID=0c0c3713
DTITLE=Judy Garland - Over The Rainbow
DYEAR=1900
DGENRE=Jazz
TTITLE0=Over The Rainbow
TTITLE1=On The Atchison, Topeka And The Santa Fe
TTITLE2=A Journey To A Star
TTITLE3=But Not For Me
TTITLE4=Embraceable You
TTITLE5=For Me And Me Gal
TTITLE6=Friendship
TTITLE7=I Never Knew 
TTITLE8=If I Had You
TTITLE9=I'm Always Chasing Rainbows
TTITLE10=I'm Wild About Harry
TTITLE11=Meet Me In St. Louis
TTITLE12=Our Love Affair
TTITLE13=Smiling Through
TTITLE14=Stomping At The Savoy
TTITLE15=Swanee
TTITLE16=This Heart Of Mine
TTITLE17=You Got Me Where You Want Me
TTITLE18=Zing, Went The String Of My Heart
EXTD=
EXTT0=
EXTT1=
EXTT2=
EXTT3=
EXTT4=
EXTT5=
EXTT6=
EXTT7=
EXTT8=
EXTT9=
EXTT10=
EXTT11=
EXTT12=
EXTT13=
EXTT14=
EXTT15=
EXTT16=
EXTT17=
EXTT18=
PLAYORDER=
